# xmcd CD database file
#
# Track frame offsets:
#	150
#	18905
#	53287
#	89095
#	90227
#	113320
#	132447
#	155835
#	183182
#	213720
#	229027
#	265517
#	292905
#	319895
#
# Disc length: 4491 seconds
#
# Revision: 0
# Processed by: cddbd v1.5.2PL0 Copyright (c) Steve Scherf et al.
# Submitted via: CDex 1.70beta2
#
DISCID=b011890e
DTITLE=Alain Cupper - Bunga
DYEAR=2003
DGENRE=Jazz
TTITLE0=Tentative
TTITLE1=Bunga
TTITLE2=Masiala
TTITLE3=(...)
TTITLE4=Well, You Needn't
TTITLE5=Trams at fair
TTITLE6=Ipon
TTITLE7=Communion
TTITLE8=Everything Happens to Me
TTITLE9=Elijah's Song
TTITLE10=Eric's Theme
TTITLE11=Too Close for Comfort
TTITLE12=J.P.C.
TTITLE13=Idrissity
EXTD=YEAR: 2003
EXTT0=
EXTT1=
EXTT2=
EXTT3=
EXTT4=
EXTT5=
EXTT6=
EXTT7=
EXTT8=
EXTT9=
EXTT10=
EXTT11=
EXTT12=
EXTT13=
PLAYORDER=
